<svg version="1.1" xmlns="http://www.w3.org/2000/svg" xmlns:xlink="http://www.w3.org/1999/xlink" width="288" height="180" viewBox="0,0,288,180"><g transform="translate(-192,0)"><g data-paper-data="{&quot;isPaintingLayer&quot;:true}" fill="#e5da0e" fill-rule="nonzero" stroke="#000000" stroke-width="0" stroke-linecap="butt" stroke-linejoin="miter" stroke-miterlimit="10" stroke-dasharray="" stroke-dashoffset="0" style="mix-blend-mode: normal"><path d="M444,0h36v36z"/><path d="M408,0h36v36z"/><path d="M444,36h36v36z"/><path d="M372,0h36v36z"/><path d="M336,0h36v36z"/><path d="M372,36h36v36z"/><path d="M408,36h36v36z"/><path d="M336,36h36v36z"/><path d="M444,72h36v36z"/><path d="M408,72h36v36z"/><path d="M372,72h36v36z"/><path d="M336,72h36v36z"/><path d="M444,108h36v36z"/><path d="M444,144h36v36z"/><path d="M228,0h36v36z"/><path d="M408,108h36v36z"/><path d="M300,0h36v36z"/><path d="M264,0h36v36z"/><path d="M192,0h36v36z"/><path d="M300,36h36v36z"/><path d="M372,108h36v36z"/><path d="M264,36h36v36z"/></g></g></svg>
